<svg xmlns="http://www.w3.org/2000/svg" viewBox="0 0 70.87 70.87"><path d="M0,0V70.87H70.87V0ZM62.52,52.93a18.79,18.79,0,0,1-3.47,5.52A17.19,17.19,0,0,1,54,62.34a13.43,13.43,0,0,1-6.11,1.44,9.42,9.42,0,0,1-4.22-1,12,12,0,0,1-3.5-2.62,14.66,14.66,0,0,1-2.52-3.69L46.91,22H42.6v-.7H54.32l-5.89,21.9A21.48,21.48,0,0,1,49.6,41a9.13,9.13,0,0,1,2.73-3A6.5,6.5,0,0,1,56,37a6.86,6.86,0,0,1,5.79,2.63,11.15,11.15,0,0,1,2,7A16.62,16.62,0,0,1,62.52,52.93Z"/><path d="M53.79,38.63a3.39,3.39,0,0,0-2.5,1.2A12.61,12.61,0,0,0,49.21,43a35.7,35.7,0,0,0-1.72,4.25c-.39,1.15-.74,2.29-1.06,3.41l-2.36,8.79a5.54,5.54,0,0,0,.56,2.48,2,2,0,0,0,1.93,1,4.17,4.17,0,0,0,2.87-1.36A15.75,15.75,0,0,0,52.09,58a31.48,31.48,0,0,0,2.22-4.83,37.14,37.14,0,0,0,1.51-5.26,23.61,23.61,0,0,0,.55-4.76,6.83,6.83,0,0,0-.69-3.36A2.1,2.1,0,0,0,53.79,38.63Z"/></svg>